{
    "asset" : {
        "generator" : "Khronos glTF Blender I/O v3.2.40",
        "version" : "2.0"
    },
    "scene" : 0,
    "scenes" : [
        {
            "name" : "Scene",
            "nodes" : [
                0
            ]
        }
    ],
    "nodes" : [
        {
            "mesh" : 0,
            "name" : "20120001-BKD-DeathMask_Low",
            "rotation" : [
                0.7071068286895752,
                0,
                0,
                0.7071067094802856
            ]
        }
    ],
    "materials" : [
        {
            "doubleSided" : true,
            "name" : "m1.001",
            "normalTexture" : {
                "index" : 0
            },
            "pbrMetallicRoughness" : {
                "baseColorTexture" : {
                    "index" : 1
                },
                "metallicFactor" : 0,
                "roughnessFactor" : 0.5
            }
        }
    ],
    "meshes" : [
        {
            "name" : "20120001-BKD-DeathMask_Low",
            "primitives" : [
                {
                    "attributes" : {
                        "POSITION" : 0,
                        "NORMAL" : 1,
                        "TEXCOORD_0" : 2
                    },
                    "indices" : 3,
                    "material" : 0
                }
            ]
        }
    ],
    "textures" : [
        {
            "sampler" : 0,
            "source" : 0
        },
        {
            "sampler" : 0,
            "source" : 1
        }
    ],
    "images" : [
        {
            "mimeType" : "image/png",
            "name" : "20120001-BKD-DeathMask_Low_Normal",
            "uri" : "20120001-BKD-DeathMask_Low_Normal.png"
        },
        {
            "mimeType" : "image/png",
            "name" : "20120001-BKD-DeathMask_Low_BaseColor",
            "uri" : "20120001-BKD-DeathMask_Low_BaseColor.png"
        }
    ],
    "accessors" : [
        {
            "bufferView" : 0,
            "componentType" : 5126,
            "count" : 3826,
            "max" : [
                60.04098129272461,
                459.0824279785156,
                256.9583740234375
            ],
            "min" : [
                -176.3265380859375,
                274.44366455078125,
                63.30305480957031
            ],
            "type" : "VEC3"
        },
        {
            "bufferView" : 1,
            "componentType" : 5126,
            "count" : 3826,
            "type" : "VEC3"
        },
        {
            "bufferView" : 2,
            "componentType" : 5126,
            "count" : 3826,
            "type" : "VEC2"
        },
        {
            "bufferView" : 3,
            "componentType" : 5123,
            "count" : 16959,
            "type" : "SCALAR"
        }
    ],
    "bufferViews" : [
        {
            "buffer" : 0,
            "byteLength" : 45912,
            "byteOffset" : 0
        },
        {
            "buffer" : 0,
            "byteLength" : 45912,
            "byteOffset" : 45912
        },
        {
            "buffer" : 0,
            "byteLength" : 30608,
            "byteOffset" : 91824
        },
        {
            "buffer" : 0,
            "byteLength" : 33918,
            "byteOffset" : 122432
        }
    ],
    "samplers" : [
        {
            "magFilter" : 9729,
            "minFilter" : 9987
        }
    ],
    "buffers" : [
        {
            "byteLength" : 156352,
            "uri" : "20120001-BKD-DeathMask_Low.bin"
        }
    ]
}
