{
    "asset" : {
        "generator" : "Khronos glTF Blender I/O v1.7.33",
        "version" : "2.0"
    },
    "scene" : 0,
    "scenes" : [
        {
            "name" : "Scene",
            "nodes" : [
                0
            ]
        }
    ],
    "nodes" : [
        {
            "mesh" : 0,
            "name" : "20120001-BKD-DeathMask_Low",
            "rotation" : [
                0.7071068286895752,
                0,
                0,
                0.7071067094802856
            ]
        }
    ],
    "materials" : [
        {
            "doubleSided" : true,
            "name" : "m1.002",
            "normalTexture" : {
                "index" : 0
            },
            "pbrMetallicRoughness" : {
                "baseColorTexture" : {
                    "index" : 1
                },
                "metallicFactor" : 0
            }
        }
    ],
    "meshes" : [
        {
            "name" : "20120001-BKD-DeathMask_Low",
            "primitives" : [
                {
                    "attributes" : {
                        "POSITION" : 0,
                        "NORMAL" : 1,
                        "TEXCOORD_0" : 2
                    },
                    "indices" : 3,
                    "material" : 0
                }
            ]
        }
    ],
    "textures" : [
        {
            "sampler" : 0,
            "source" : 0
        },
        {
            "sampler" : 0,
            "source" : 1
        }
    ],
    "images" : [
        {
            "mimeType" : "image/png",
            "name" : "20120001-BKD-DeathMask_Low_Normal",
            "uri" : "20120001-BKD-DeathMask_Low_Normal.png"
        },
        {
            "mimeType" : "image/png",
            "name" : "20120001-BKD-DeathMask_Low_BaseColor",
            "uri" : "20120001-BKD-DeathMask_Low_BaseColor.png"
        }
    ],
    "accessors" : [
        {
            "bufferView" : 0,
            "componentType" : 5126,
            "count" : 3822,
            "max" : [
                0.11445999890565872,
                0.1028439998626709,
                0.10474000126123428
            ],
            "min" : [
                -0.12190700322389603,
                -0.08179499953985214,
                -0.08891499787569046
            ],
            "type" : "VEC3"
        },
        {
            "bufferView" : 1,
            "componentType" : 5126,
            "count" : 3822,
            "type" : "VEC3"
        },
        {
            "bufferView" : 2,
            "componentType" : 5126,
            "count" : 3822,
            "type" : "VEC2"
        },
        {
            "bufferView" : 3,
            "componentType" : 5123,
            "count" : 16959,
            "type" : "SCALAR"
        }
    ],
    "bufferViews" : [
        {
            "buffer" : 0,
            "byteLength" : 45864,
            "byteOffset" : 0
        },
        {
            "buffer" : 0,
            "byteLength" : 45864,
            "byteOffset" : 45864
        },
        {
            "buffer" : 0,
            "byteLength" : 30576,
            "byteOffset" : 91728
        },
        {
            "buffer" : 0,
            "byteLength" : 33918,
            "byteOffset" : 122304
        }
    ],
    "samplers" : [
        {
            "magFilter" : 9729,
            "minFilter" : 9987
        }
    ],
    "buffers" : [
        {
            "byteLength" : 156224,
            "uri" : "20120001-BKD-DeathMask_Low.bin"
        }
    ]
}
